<?xml version="1.0" encoding="UTF-8" standalone="no"?>
<!-- Created with Inkscape (http://www.inkscape.org/) -->

<svg
   xmlns:dc="http://purl.org/dc/elements/1.1/"
   xmlns:cc="http://creativecommons.org/ns#"
   xmlns:rdf="http://www.w3.org/1999/02/22-rdf-syntax-ns#"
   xmlns:svg="http://www.w3.org/2000/svg"
   xmlns="http://www.w3.org/2000/svg"
   xmlns:sodipodi="http://sodipodi.sourceforge.net/DTD/sodipodi-0.dtd"
   xmlns:inkscape="http://www.inkscape.org/namespaces/inkscape"
   width="1163.1339"
   height="1057.3091"
   id="svg5584"
   version="1.1"
   inkscape:version="0.48.4 r9939"
   sodipodi:docname="aircraft.svg">
  <defs
     id="defs5586" />
  <sodipodi:namedview
     id="base"
     pagecolor="#ffffff"
     bordercolor="#666666"
     borderopacity="1.0"
     inkscape:pageopacity="0.0"
     inkscape:pageshadow="2"
     inkscape:zoom="0.35"
     inkscape:cx="106.31167"
     inkscape:cy="359.58037"
     inkscape:document-units="px"
     inkscape:current-layer="layer1"
     showgrid="false"
     inkscape:object-paths="true"
     inkscape:snap-intersection-paths="true"
     inkscape:window-width="1680"
     inkscape:window-height="995"
     inkscape:window-x="0"
     inkscape:window-y="0"
     inkscape:window-maximized="1"
     inkscape:snap-smooth-nodes="true" />
  <metadata
     id="metadata5589">
    <rdf:RDF>
      <cc:Work
         rdf:about="">
        <dc:format>image/svg+xml</dc:format>
        <dc:type
           rdf:resource="http://purl.org/dc/dcmitype/StillImage" />
        <dc:title></dc:title>
      </cc:Work>
    </rdf:RDF>
  </metadata>
  <g
     inkscape:label="Layer 1"
     inkscape:groupmode="layer"
     id="layer1"
     transform="translate(190.3124,768.27173)">
    <path
       style="fill:none;stroke:#000000;stroke-width:1px;stroke-linecap:butt;stroke-linejoin:miter;stroke-opacity:1"
       d="m -189.83068,-239.65663 2.81819,7.6624 12.33985,9.86473 31.75576,12.62072 55.020389,12.4571 62.54195,8.17696 44.8582,2.88314 591.897911,0.26507 83.51469,-4.81836 81.03664,-10.15833 69.40495,-15.59302 68.8307,-11.51182 23.97415,-9.08417"
       id="path6662"
       inkscape:connector-curvature="0"
       sodipodi:nodetypes="ccccccccccccc" />
    <path
       style="fill:none;stroke:#000000;stroke-width:1px;stroke-linecap:butt;stroke-linejoin:miter;stroke-opacity:1"
       d="M 153.25407,-185.93168 413.95062,98.07428 563.97588,277.59343 629.79345,274.87963 590.55498,222.85544 444.8316,-27.191505 393.61635,-185.82404"
       id="path6664"
       inkscape:connector-curvature="0"
       sodipodi:nodetypes="ccccccc" />
    <path
       style="fill:none;stroke:#000000;stroke-width:1px;stroke-linecap:butt;stroke-linejoin:miter;stroke-opacity:1"
       d="m 267.17488,-61.764585 -12.4086,-1.72733 0,-3.55763 -18.52882,-2.84625 -22.29471,0.3558 -11.99242,3.55648 0.006,36.99684 11.98649,3.55278 22.29471,0.35579 18.52883,-2.84627 0,-4.04903 35.90653,-4.20192"
       id="path6666"
       inkscape:connector-curvature="0" />
    <path
       style="fill:none;stroke:#000000;stroke-width:1px;stroke-linecap:butt;stroke-linejoin:miter;stroke-opacity:1"
       d="m 254.76628,-63.491915 7e-5,32.00993"
       id="path6668"
       inkscape:connector-curvature="0" />
    <path
       style="fill:none;stroke:#000000;stroke-width:1px;stroke-linecap:butt;stroke-linejoin:miter;stroke-opacity:1"
       d="m 236.2374,-69.895805 5e-5,44.8177"
       id="path6670"
       inkscape:connector-curvature="0" />
    <path
       style="fill:none;stroke:#000000;stroke-width:1px;stroke-linecap:butt;stroke-linejoin:miter;stroke-opacity:1"
       d="m 213.94272,-69.539995 2e-5,44.10608"
       id="path6672"
       inkscape:connector-curvature="0" />
    <path
       style="fill:none;stroke:#000000;stroke-width:1px;stroke-linecap:butt;stroke-linejoin:miter;stroke-opacity:1"
       d="m 401.70208,84.73563 -11.92174,-1.05205 0,-3.55758 -18.52881,-2.84627 -22.29475,0.35577 -11.9924,3.55646 0.006,36.99691 11.98645,3.55274 22.29474,0.35579 18.52882,-2.84627 0,-3.5576 35.0645,-4.58329"
       id="path6674"
       inkscape:connector-curvature="0" />
    <path
       style="fill:none;stroke:#000000;stroke-width:1px;stroke-linecap:butt;stroke-linejoin:miter;stroke-opacity:1"
       d="m 389.78034,83.68358 0,32.00995"
       id="path6676"
       inkscape:connector-curvature="0" />
    <path
       style="fill:none;stroke:#000000;stroke-width:1px;stroke-linecap:butt;stroke-linejoin:miter;stroke-opacity:1"
       d="m 371.25153,77.27973 0,44.81767"
       id="path6678"
       inkscape:connector-curvature="0" />
    <path
       style="fill:none;stroke:#000000;stroke-width:1px;stroke-linecap:butt;stroke-linejoin:miter;stroke-opacity:1"
       d="m 348.95682,77.6355 -4e-5,44.1061"
       id="path6680"
       inkscape:connector-curvature="0" />
    <path
       style="fill:none;stroke:#000000;stroke-width:1px;stroke-linecap:butt;stroke-linejoin:miter;stroke-opacity:1"
       d="m 585.51993,276.70513 47.14634,11.8205 24.27841,0 -27.15131,-13.646"
       id="path6682"
       inkscape:connector-curvature="0"
       sodipodi:nodetypes="cccc" />
    <path
       style="fill:none;stroke:#000000;stroke-width:1px;stroke-linecap:butt;stroke-linejoin:miter;stroke-opacity:1"
       d="m 513.19654,100.64642 -78.00409,-127.837925 9.63916,0"
       id="path6686"
       inkscape:connector-curvature="0" />
    <path
       style="fill:none;stroke:#000000;stroke-width:1px;stroke-linecap:butt;stroke-linejoin:miter;stroke-opacity:1"
       d="m 508.34806,100.64642 -85.9908,-127.837925 12.83519,0"
       id="path6688"
       inkscape:connector-curvature="0" />
    <path
       style="fill:none;stroke:#000000;stroke-width:1px;stroke-linecap:butt;stroke-linejoin:miter;stroke-opacity:1"
       d="m 497.39452,100.64642 -4.28262,0 -9.93386,-14.76811 10.75231,-6.66593"
       id="path6690"
       inkscape:connector-curvature="0" />
    <path
       style="fill:none;stroke:#000000;stroke-width:1px;stroke-linecap:butt;stroke-linejoin:miter;stroke-opacity:1"
       d="m 483.17804,85.87831 -3.74118,2.51653 -17.32146,-25.75089 14.23237,-9.57064"
       id="path6692"
       inkscape:connector-curvature="0"
       sodipodi:nodetypes="cccc" />
    <path
       style="fill:none;stroke:#000000;stroke-width:1px;stroke-linecap:butt;stroke-linejoin:miter;stroke-opacity:1"
       d="M 462.11618,62.64343 444.79394,36.893055 458.96938,27.237777"
       id="path6696"
       inkscape:connector-curvature="0"
       sodipodi:nodetypes="ccc" />
    <path
       style="fill:none;stroke:#000000;stroke-width:1px;stroke-linecap:butt;stroke-linejoin:miter;stroke-opacity:1"
       d="M 444.83867,36.959565 427.47248,11.142155 441.8414,1.774511"
       id="path6698"
       inkscape:connector-curvature="0"
       sodipodi:nodetypes="ccc" />
    <path
       style="fill:none;stroke:#000000;stroke-width:1px;stroke-linecap:butt;stroke-linejoin:miter;stroke-opacity:1"
       d="m 427.47248,11.142155 -17.32147,-25.7509 14.22167,-9.58656"
       id="path6700"
       inkscape:connector-curvature="0" />
    <path
       style="fill:none;stroke:#000000;stroke-width:1px;stroke-linecap:butt;stroke-linejoin:miter;stroke-opacity:1"
       d="m 413.88972,-17.128935 -6.76864,-10.06257 15.23618,0"
       id="path6702"
       inkscape:connector-curvature="0" />
    <path
       style="fill:none;stroke:#000000;stroke-width:1px;stroke-linecap:butt;stroke-linejoin:miter;stroke-opacity:1"
       d="m 407.12108,-27.191505 -0.0943,-28.2143 28.68457,0"
       id="path6704"
       inkscape:connector-curvature="0" />
    <path
       style="fill:none;stroke:#000000;stroke-width:1px;stroke-linecap:butt;stroke-linejoin:miter;stroke-opacity:1"
       d="M 425.44425,-55.405805 383.25982,-185.82868"
       id="path6706"
       inkscape:connector-curvature="0"
       sodipodi:nodetypes="cc" />
    <path
       style="fill:none;stroke:#000000;stroke-width:1px;stroke-linecap:butt;stroke-linejoin:miter;stroke-opacity:1"
       d="M 408.14346,-55.405805 365.95912,-185.83643"
       id="path6708"
       inkscape:connector-curvature="0"
       sodipodi:nodetypes="cc" />
    <path
       style="fill:none;stroke:#000000;stroke-width:1px;stroke-linecap:butt;stroke-linejoin:miter;stroke-opacity:1"
       d="m 407.12108,-55.405805 -20.52562,0 -3.1033,-9.71403 19.46958,-6.30744"
       id="path6710"
       inkscape:connector-curvature="0"
       sodipodi:nodetypes="cccc" />
    <path
       style="fill:none;stroke:#000000;stroke-width:1px;stroke-linecap:butt;stroke-linejoin:miter;stroke-opacity:1"
       d="m 383.49311,-65.120145 -3.45642,1.11729 -11.0005,-34.03088 22.8106,-7.760085"
       id="path6712"
       inkscape:connector-curvature="0"
       sodipodi:nodetypes="cccc" />
    <path
       style="fill:none;stroke:#000000;stroke-width:1px;stroke-linecap:butt;stroke-linejoin:miter;stroke-opacity:1"
       d="M 361.58572,-133.48515 344.14319,-185.8462"
       id="path6716"
       inkscape:connector-curvature="0"
       sodipodi:nodetypes="cc" />
    <path
       style="fill:none;stroke:#000000;stroke-width:1px;stroke-linecap:butt;stroke-linejoin:miter;stroke-opacity:1"
       d="m 489.24586,49.01898 7.04002,-0.97894 11.86118,-3.411395 -12.09698,-3.45632 -12.01825,-1.100104"
       id="path6718"
       inkscape:connector-curvature="0"
       sodipodi:nodetypes="ccccc" />
    <path
       style="fill:none;stroke:#000000;stroke-width:1px;stroke-linecap:butt;stroke-linejoin:miter;stroke-opacity:1"
       d="m 458.34619,-4.001799 8.89374,-1.792176 6.74611,-2.22308 -10.96947,-3.23378 -9.57186,-1.161416"
       id="path6720"
       inkscape:connector-curvature="0"
       sodipodi:nodetypes="ccccc" />
    <path
       style="fill:none;stroke:#000000;stroke-width:1px;stroke-linecap:butt;stroke-linejoin:miter;stroke-opacity:1"
       d="m 424.53858,-89.969575 8.45959,-1.44051 9.09355,-2.81973 -10.90705,-3.22086 -9.40928,-1.154412"
       id="path6722"
       inkscape:connector-curvature="0"
       sodipodi:nodetypes="ccccc" />
    <path
       style="fill:none;stroke:#000000;stroke-width:1px;stroke-linecap:butt;stroke-linejoin:miter;stroke-opacity:1"
       d="m 410.16569,-134.56466 9.16852,-1.63857 9.74125,-2.96889 -11.68633,-3.37755 -10.2116,-1.27042"
       id="path6724"
       inkscape:connector-curvature="0"
       sodipodi:nodetypes="ccccc" />
    <path
       style="fill:none;stroke:#000000;stroke-width:1px;stroke-linecap:butt;stroke-linejoin:miter;stroke-opacity:1"
       d="m 786.471,-203.06627 132.59563,147.905821 42.02412,0.09411 -46.90231,-172.741715"
       id="path6726"
       inkscape:connector-curvature="0"
       sodipodi:nodetypes="cccc" />
    <path
       style="fill:none;stroke:#000000;stroke-width:1px;stroke-linecap:butt;stroke-linejoin:miter;stroke-opacity:1"
       d="m 874.99836,-221.25355 64.75079,142.313735 14.8596,0"
       id="path6728"
       inkscape:connector-curvature="0"
       sodipodi:nodetypes="ccc" />
    <path
       style="fill:none;stroke:#000000;stroke-width:1px;stroke-linecap:butt;stroke-linejoin:miter;stroke-opacity:1"
       d="m 684.70279,-239.59105 1.69801,2.8394 6.78594,2.79637 13.82104,2.57704 29.98259,2.39337 29.35261,0.77388 66.08376,-0.89837 52.8048,-2.50881 52.93119,-5.27404"
       id="path6730"
       inkscape:connector-curvature="0"
       sodipodi:nodetypes="ccccccccc" />
    <path
       style="fill:none;stroke:#000000;stroke-width:1px;stroke-linecap:butt;stroke-linejoin:miter;stroke-opacity:1"
       d="m 908.36705,-239.44719 1.5141,0.87304 5.3369,0.89371 14.2678,0.89199 8.6805,-0.1038 7.4195,-0.29814 11.70809,-0.84144 15.46105,-1.6147"
       id="path6732"
       inkscape:connector-curvature="0"
       sodipodi:nodetypes="cccccccc" />
    <path
       style="fill:none;stroke:#000000;stroke-width:1px;stroke-linecap:butt;stroke-linejoin:miter;stroke-opacity:1"
       d="m 380.92365,-139.56732 -22.97715,7.22678 11.08969,34.3068"
       id="path4664"
       inkscape:connector-curvature="0"
       sodipodi:nodetypes="ccc" />
    <path
       style="fill:none;stroke:#000000;stroke-width:1px;stroke-linecap:butt;stroke-linejoin:miter;stroke-opacity:1"
       d="m 590.55499,222.85544 -14.14387,0 -79.0166,-122.20902 21.94724,0.0141"
       id="path4666"
       inkscape:connector-curvature="0" />
    <path
       style="fill:none;stroke:#000000;stroke-width:1px;stroke-linecap:butt;stroke-linejoin:miter;stroke-opacity:1"
       d="m -189.83068,-239.65663 2.81816,-7.58922 12.33985,-9.86473 31.75576,-12.62072 55.020388,-12.4571 62.54195,-8.17696 44.8582,-2.88314 591.897912,-0.26507 83.51469,4.81836 81.03664,10.15833 69.40495,15.59302 68.8307,11.51182 23.9742,9.08417"
       id="path6662-4"
       inkscape:connector-curvature="0"
       sodipodi:nodetypes="ccccccccccccc" />
    <path
       style="fill:none;stroke:#000000;stroke-width:1px;stroke-linecap:butt;stroke-linejoin:miter;stroke-opacity:1"
       d="m 153.25405,-293.3084 260.69654,-284.00596 150.02526,-179.51915 65.81757,2.7138 -39.23846,52.02419 -145.72338,250.04695 -51.21525,158.63253"
       id="path6664-6"
       inkscape:connector-curvature="0"
       sodipodi:nodetypes="ccccccc" />
    <path
       style="fill:none;stroke:#000000;stroke-width:1px;stroke-linecap:butt;stroke-linejoin:miter;stroke-opacity:1"
       d="m 267.17485,-417.4755 -12.40859,1.72733 0,3.55764 -18.52883,2.84625 -22.29471,-0.3558 -11.99242,-3.55648 0.006,-36.99684 11.98649,-3.55278 22.29471,-0.35579 18.52883,2.84627 0,4.04903 35.90653,4.20192"
       id="path6666-1"
       inkscape:connector-curvature="0" />
    <path
       style="fill:none;stroke:#000000;stroke-width:1px;stroke-linecap:butt;stroke-linejoin:miter;stroke-opacity:1"
       d="m 254.76626,-415.74817 7e-5,-32.00992"
       id="path6668-2"
       inkscape:connector-curvature="0" />
    <path
       style="fill:none;stroke:#000000;stroke-width:1px;stroke-linecap:butt;stroke-linejoin:miter;stroke-opacity:1"
       d="m 236.23738,-409.34427 5e-5,-44.8177"
       id="path6670-3"
       inkscape:connector-curvature="0" />
    <path
       style="fill:none;stroke:#000000;stroke-width:1px;stroke-linecap:butt;stroke-linejoin:miter;stroke-opacity:1"
       d="m 213.9427,-409.70008 2e-5,-44.10608"
       id="path6672-6"
       inkscape:connector-curvature="0" />
    <path
       style="fill:none;stroke:#000000;stroke-width:1px;stroke-linecap:butt;stroke-linejoin:miter;stroke-opacity:1"
       d="m 401.70206,-563.97571 -11.92175,1.05205 0,3.55758 -18.52881,2.84627 -22.29474,-0.35577 -11.9924,-3.55646 0.006,-36.99691 11.98645,-3.55274 22.29474,-0.35579 18.52881,2.84627 0,3.5576 35.06451,4.58329"
       id="path6674-9"
       inkscape:connector-curvature="0" />
    <path
       style="fill:none;stroke:#000000;stroke-width:1px;stroke-linecap:butt;stroke-linejoin:miter;stroke-opacity:1"
       d="m 389.78031,-562.92366 0,-32.00995"
       id="path6676-7"
       inkscape:connector-curvature="0" />
    <path
       style="fill:none;stroke:#000000;stroke-width:1px;stroke-linecap:butt;stroke-linejoin:miter;stroke-opacity:1"
       d="m 371.2515,-556.51981 0,-44.81767"
       id="path6678-2"
       inkscape:connector-curvature="0" />
    <path
       style="fill:none;stroke:#000000;stroke-width:1px;stroke-linecap:butt;stroke-linejoin:miter;stroke-opacity:1"
       d="m 348.9568,-556.87558 -4e-5,-44.1061"
       id="path6680-5"
       inkscape:connector-curvature="0" />
    <path
       style="fill:none;stroke:#000000;stroke-width:1px;stroke-linecap:butt;stroke-linejoin:miter;stroke-opacity:1"
       d="m 585.5199,-755.94521 47.14634,-11.8205 24.27841,0 -27.15131,13.646"
       id="path6682-9"
       inkscape:connector-curvature="0"
       sodipodi:nodetypes="cccc" />
    <path
       style="fill:none;stroke:#000000;stroke-width:1px;stroke-linecap:butt;stroke-linejoin:miter;stroke-opacity:1"
       d="m 513.19651,-579.8865 -78.00408,127.83793 9.63915,0"
       id="path6686-3"
       inkscape:connector-curvature="0" />
    <path
       style="fill:none;stroke:#000000;stroke-width:1px;stroke-linecap:butt;stroke-linejoin:miter;stroke-opacity:1"
       d="m 508.34803,-579.8865 -85.99079,127.83793 12.83519,0"
       id="path6688-1"
       inkscape:connector-curvature="0" />
    <path
       style="fill:none;stroke:#000000;stroke-width:1px;stroke-linecap:butt;stroke-linejoin:miter;stroke-opacity:1"
       d="m 497.39449,-579.8865 -4.28262,0 -9.93386,14.76811 10.75231,6.66593"
       id="path6690-4"
       inkscape:connector-curvature="0" />
    <path
       style="fill:none;stroke:#000000;stroke-width:1px;stroke-linecap:butt;stroke-linejoin:miter;stroke-opacity:1"
       d="m 483.17801,-565.11839 -3.74118,-2.51653 -17.32145,25.75089 14.23237,9.57064"
       id="path6692-9"
       inkscape:connector-curvature="0"
       sodipodi:nodetypes="cccc" />
    <path
       style="fill:none;stroke:#000000;stroke-width:1px;stroke-linecap:butt;stroke-linejoin:miter;stroke-opacity:1"
       d="m 462.11616,-541.88351 -17.32225,25.75038 14.17545,9.65527"
       id="path6696-7"
       inkscape:connector-curvature="0"
       sodipodi:nodetypes="ccc" />
    <path
       style="fill:none;stroke:#000000;stroke-width:1px;stroke-linecap:butt;stroke-linejoin:miter;stroke-opacity:1"
       d="m 444.83865,-516.19964 -17.3662,25.81741 14.36892,9.36764"
       id="path6698-6"
       inkscape:connector-curvature="0"
       sodipodi:nodetypes="ccc" />
    <path
       style="fill:none;stroke:#000000;stroke-width:1px;stroke-linecap:butt;stroke-linejoin:miter;stroke-opacity:1"
       d="m 427.47245,-490.38223 -17.32147,25.7509 14.22167,9.58656"
       id="path6700-7"
       inkscape:connector-curvature="0" />
    <path
       style="fill:none;stroke:#000000;stroke-width:1px;stroke-linecap:butt;stroke-linejoin:miter;stroke-opacity:1"
       d="m 413.88969,-462.11114 -6.76863,10.06257 15.23618,0"
       id="path6702-4"
       inkscape:connector-curvature="0" />
    <path
       style="fill:none;stroke:#000000;stroke-width:1px;stroke-linecap:butt;stroke-linejoin:miter;stroke-opacity:1"
       d="m 407.12106,-452.04857 -0.0943,28.21429 28.68457,0"
       id="path6704-5"
       inkscape:connector-curvature="0" />
    <path
       style="fill:none;stroke:#000000;stroke-width:1px;stroke-linecap:butt;stroke-linejoin:miter;stroke-opacity:1"
       d="M 425.44422,-423.83428 383.2598,-293.4114"
       id="path6706-6"
       inkscape:connector-curvature="0"
       sodipodi:nodetypes="cc" />
    <path
       style="fill:none;stroke:#000000;stroke-width:1px;stroke-linecap:butt;stroke-linejoin:miter;stroke-opacity:1"
       d="M 408.14343,-423.83428 365.9591,-293.40365"
       id="path6708-5"
       inkscape:connector-curvature="0"
       sodipodi:nodetypes="cc" />
    <path
       style="fill:none;stroke:#000000;stroke-width:1px;stroke-linecap:butt;stroke-linejoin:miter;stroke-opacity:1"
       d="m 407.12106,-423.83428 -20.52563,0 -3.1033,9.71404 19.46958,6.30744"
       id="path6710-7"
       inkscape:connector-curvature="0"
       sodipodi:nodetypes="cccc" />
    <path
       style="fill:none;stroke:#000000;stroke-width:1px;stroke-linecap:butt;stroke-linejoin:miter;stroke-opacity:1"
       d="m 383.49308,-414.11993 -3.45642,-1.1173 -11.0005,34.03089 22.8106,7.76008"
       id="path6712-5"
       inkscape:connector-curvature="0"
       sodipodi:nodetypes="cccc" />
    <path
       style="fill:none;stroke:#000000;stroke-width:1px;stroke-linecap:butt;stroke-linejoin:miter;stroke-opacity:1"
       d="m 361.58569,-345.75493 -17.44252,52.36105"
       id="path6716-5"
       inkscape:connector-curvature="0"
       sodipodi:nodetypes="cc" />
    <path
       style="fill:none;stroke:#000000;stroke-width:1px;stroke-linecap:butt;stroke-linejoin:miter;stroke-opacity:1"
       d="m 489.24584,-528.25906 7.04002,0.97894 11.86117,3.4114 -12.09697,3.45632 -12.01825,1.1001"
       id="path6718-4"
       inkscape:connector-curvature="0"
       sodipodi:nodetypes="ccccc" />
    <path
       style="fill:none;stroke:#000000;stroke-width:1px;stroke-linecap:butt;stroke-linejoin:miter;stroke-opacity:1"
       d="m 458.34617,-475.23828 8.89374,1.79218 6.74611,2.22308 -10.96947,3.23378 -9.57186,1.16141"
       id="path6720-2"
       inkscape:connector-curvature="0"
       sodipodi:nodetypes="ccccc" />
    <path
       style="fill:none;stroke:#000000;stroke-width:1px;stroke-linecap:butt;stroke-linejoin:miter;stroke-opacity:1"
       d="m 424.53856,-389.2705 8.45959,1.44051 9.09354,2.81973 -10.90704,3.22086 -9.40928,1.15441"
       id="path6722-8"
       inkscape:connector-curvature="0"
       sodipodi:nodetypes="ccccc" />
    <path
       style="fill:none;stroke:#000000;stroke-width:1px;stroke-linecap:butt;stroke-linejoin:miter;stroke-opacity:1"
       d="m 410.16566,-344.67541 9.16853,1.63857 9.74125,2.96889 -11.68634,3.37754 -10.2116,1.27042"
       id="path6724-7"
       inkscape:connector-curvature="0"
       sodipodi:nodetypes="ccccc" />
    <path
       style="fill:none;stroke:#000000;stroke-width:1px;stroke-linecap:butt;stroke-linejoin:miter;stroke-opacity:1"
       d="m 786.47098,-276.17381 132.59564,-147.90582 42.0241,-0.0941 -46.9023,172.74172"
       id="path6726-2"
       inkscape:connector-curvature="0"
       sodipodi:nodetypes="cccc" />
    <path
       style="fill:none;stroke:#000000;stroke-width:1px;stroke-linecap:butt;stroke-linejoin:miter;stroke-opacity:1"
       d="m 874.99832,-257.98653 64.7508,-142.31373 14.8596,0"
       id="path6728-7"
       inkscape:connector-curvature="0"
       sodipodi:nodetypes="ccc" />
    <path
       style="fill:none;stroke:#000000;stroke-width:1px;stroke-linecap:butt;stroke-linejoin:miter;stroke-opacity:1"
       d="m 684.70276,-239.64903 1.69801,-2.8394 6.78595,-2.79637 13.82104,-2.57704 29.98259,-2.39337 29.3526,-0.77388 66.08377,0.89837 52.8048,2.50881 52.9312,5.27404"
       id="path6730-1"
       inkscape:connector-curvature="0"
       sodipodi:nodetypes="ccccccccc" />
    <path
       style="fill:none;stroke:#000000;stroke-width:1px;stroke-linecap:butt;stroke-linejoin:miter;stroke-opacity:1"
       d="m 907.92059,-239.68128 1.96053,-0.98465 5.3369,-0.89371 14.2678,-0.89199 8.6805,0.1038 7.4195,0.29814 11.7081,0.84144 15.4611,1.56172"
       id="path6732-8"
       inkscape:connector-curvature="0"
       sodipodi:nodetypes="cccccccc" />
    <path
       style="fill:none;stroke:#000000;stroke-width:1px;stroke-linecap:butt;stroke-linejoin:miter;stroke-opacity:1"
       d="m 380.92362,-339.67276 -22.97715,-7.22678 11.08969,-34.3068"
       id="path4664-9"
       inkscape:connector-curvature="0"
       sodipodi:nodetypes="ccc" />
    <path
       style="fill:none;stroke:#000000;stroke-width:1px;stroke-linecap:butt;stroke-linejoin:miter;stroke-opacity:1"
       d="m 590.55496,-702.09552 -14.14387,0 -79.0166,122.20902 21.94724,-0.0141"
       id="path4666-3"
       inkscape:connector-curvature="0" />
  </g>
</svg>
