<?xml version="1.0" encoding="UTF-8" standalone="no"?>
<!-- Created with Inkscape (http://www.inkscape.org/) -->

<svg
   xmlns:dc="http://purl.org/dc/elements/1.1/"
   xmlns:cc="http://creativecommons.org/ns#"
   xmlns:rdf="http://www.w3.org/1999/02/22-rdf-syntax-ns#"
   xmlns:svg="http://www.w3.org/2000/svg"
   xmlns="http://www.w3.org/2000/svg"
   xmlns:sodipodi="http://sodipodi.sourceforge.net/DTD/sodipodi-0.dtd"
   xmlns:inkscape="http://www.inkscape.org/namespaces/inkscape"
   width="1163.375"
   height="529.125"
   id="svg5584"
   version="1.1"
   inkscape:version="0.48.4 r9939"
   sodipodi:docname="half_aircraft_boundary.svg">
  <defs
     id="defs5586" />
  <sodipodi:namedview
     id="base"
     pagecolor="#ffffff"
     bordercolor="#666666"
     borderopacity="1.0"
     inkscape:pageopacity="0.0"
     inkscape:pageshadow="2"
     inkscape:zoom="0.5"
     inkscape:cx="176.37786"
     inkscape:cy="-123.02147"
     inkscape:document-units="px"
     inkscape:current-layer="layer1"
     showgrid="false"
     inkscape:object-paths="true"
     inkscape:snap-intersection-paths="true"
     inkscape:window-width="1680"
     inkscape:window-height="993"
     inkscape:window-x="1680"
     inkscape:window-y="0"
     inkscape:window-maximized="1"
     inkscape:snap-smooth-nodes="true" />
  <metadata
     id="metadata5589">
    <rdf:RDF>
      <cc:Work
         rdf:about="">
        <dc:format>image/svg+xml</dc:format>
        <dc:type
           rdf:resource="http://purl.org/dc/dcmitype/StillImage" />
      </cc:Work>
    </rdf:RDF>
  </metadata>
  <g
     inkscape:label="Layer 1"
     inkscape:groupmode="layer"
     id="layer1"
     transform="translate(152.03125,185.25)">
    <path
       style="fill:none;stroke:#000000;stroke-width:1px;stroke-linecap:butt;stroke-linejoin:miter;stroke-opacity:1"
       d="m 1011.3085,-184.75587 -1162.6188,0 2.85131,7.59932 12.33985,9.86473 31.75576,12.62072 55.020394,12.4571 62.54195,8.17696 44.8582,2.88314 591.897906,0.26507 83.51469,-4.81836 81.03664,-10.15833 69.40495,-15.59302 68.8307,-11.51182 23.97415,-9.08417"
       id="path6662"
       inkscape:connector-curvature="0"
       sodipodi:nodetypes="cccccccccccccc" />
    <path
       style="fill:none;stroke:#000000;stroke-width:1px;stroke-linecap:butt;stroke-linejoin:miter;stroke-opacity:1"
       d="m 191.80758,-131.094 260.69654,284.00596 150.02526,179.51915 65.81757,-2.7138 L 629.10849,277.69312 483.38511,27.646175 432.16986,-130.98636"
       id="path6664"
       inkscape:connector-curvature="0"
       sodipodi:nodetypes="ccccccc" />
    <path
       style="fill:none;stroke:#000000;stroke-width:1px;stroke-linecap:butt;stroke-linejoin:miter;stroke-opacity:1"
       d="m 305.72838,-6.9269049 -12.40859,-1.72733 0,-3.5576301 -18.52883,-2.84625 -22.29471,0.3558 -11.99242,3.55648 0.006,36.99684 11.98649,3.55278 22.29471,0.35579 18.52883,-2.84627 0,-4.04903 35.90653,-4.20192"
       id="path6666"
       inkscape:connector-curvature="0" />
    <path
       style="fill:none;stroke:#000000;stroke-width:1px;stroke-linecap:butt;stroke-linejoin:miter;stroke-opacity:1"
       d="m 293.31979,-8.6542349 7e-5,32.0099299"
       id="path6668"
       inkscape:connector-curvature="0" />
    <path
       style="fill:none;stroke:#000000;stroke-width:1px;stroke-linecap:butt;stroke-linejoin:miter;stroke-opacity:1"
       d="m 274.79091,-15.058125 5e-5,44.8177"
       id="path6670"
       inkscape:connector-curvature="0" />
    <path
       style="fill:none;stroke:#000000;stroke-width:1px;stroke-linecap:butt;stroke-linejoin:miter;stroke-opacity:1"
       d="m 252.49623,-14.702315 2e-5,44.10608"
       id="path6672"
       inkscape:connector-curvature="0" />
    <path
       style="fill:none;stroke:#000000;stroke-width:1px;stroke-linecap:butt;stroke-linejoin:miter;stroke-opacity:1"
       d="m 440.25559,139.57331 -11.92175,-1.05205 0,-3.55758 -18.52881,-2.84627 -22.29474,0.35577 -11.9924,3.55646 0.006,36.99691 11.98645,3.55274 22.29474,0.35579 18.52881,-2.84627 0,-3.5576 35.06451,-4.58329"
       id="path6674"
       inkscape:connector-curvature="0" />
    <path
       style="fill:none;stroke:#000000;stroke-width:1px;stroke-linecap:butt;stroke-linejoin:miter;stroke-opacity:1"
       d="m 428.33384,138.52126 0,32.00995"
       id="path6676"
       inkscape:connector-curvature="0" />
    <path
       style="fill:none;stroke:#000000;stroke-width:1px;stroke-linecap:butt;stroke-linejoin:miter;stroke-opacity:1"
       d="m 409.80503,132.11741 0,44.81767"
       id="path6678"
       inkscape:connector-curvature="0" />
    <path
       style="fill:none;stroke:#000000;stroke-width:1px;stroke-linecap:butt;stroke-linejoin:miter;stroke-opacity:1"
       d="m 387.51033,132.47318 -4e-5,44.1061"
       id="path6680"
       inkscape:connector-curvature="0" />
    <path
       style="fill:none;stroke:#000000;stroke-width:1px;stroke-linecap:butt;stroke-linejoin:miter;stroke-opacity:1"
       d="m 624.07343,331.54281 47.14634,11.8205 24.27841,0 -27.15131,-13.646"
       id="path6682"
       inkscape:connector-curvature="0"
       sodipodi:nodetypes="cccc" />
    <path
       style="fill:none;stroke:#000000;stroke-width:1px;stroke-linecap:butt;stroke-linejoin:miter;stroke-opacity:1"
       d="m 551.75004,155.4841 -78.00408,-127.837925 9.63915,0"
       id="path6686"
       inkscape:connector-curvature="0" />
    <path
       style="fill:none;stroke:#000000;stroke-width:1px;stroke-linecap:butt;stroke-linejoin:miter;stroke-opacity:1"
       d="m 546.90156,155.4841 -85.99079,-127.837925 12.83519,0"
       id="path6688"
       inkscape:connector-curvature="0" />
    <path
       style="fill:none;stroke:#000000;stroke-width:1px;stroke-linecap:butt;stroke-linejoin:miter;stroke-opacity:1"
       d="m 535.94802,155.4841 -4.28262,0 -9.93386,-14.76811 10.75231,-6.66593"
       id="path6690"
       inkscape:connector-curvature="0" />
    <path
       style="fill:none;stroke:#000000;stroke-width:1px;stroke-linecap:butt;stroke-linejoin:miter;stroke-opacity:1"
       d="m 521.73154,140.71599 -3.74118,2.51653 -17.32145,-25.75089 14.23237,-9.57064"
       id="path6692"
       inkscape:connector-curvature="0"
       sodipodi:nodetypes="cccc" />
    <path
       style="fill:none;stroke:#000000;stroke-width:1px;stroke-linecap:butt;stroke-linejoin:miter;stroke-opacity:1"
       d="M 500.66969,117.48111 483.34744,91.730735 497.52289,82.075457"
       id="path6696"
       inkscape:connector-curvature="0"
       sodipodi:nodetypes="ccc" />
    <path
       style="fill:none;stroke:#000000;stroke-width:1px;stroke-linecap:butt;stroke-linejoin:miter;stroke-opacity:1"
       d="m 483.39218,91.797245 -17.3662,-25.81741 14.36892,-9.367644"
       id="path6698"
       inkscape:connector-curvature="0"
       sodipodi:nodetypes="ccc" />
    <path
       style="fill:none;stroke:#000000;stroke-width:1px;stroke-linecap:butt;stroke-linejoin:miter;stroke-opacity:1"
       d="m 466.02598,65.979835 -17.32147,-25.7509 14.22167,-9.58656"
       id="path6700"
       inkscape:connector-curvature="0" />
    <path
       style="fill:none;stroke:#000000;stroke-width:1px;stroke-linecap:butt;stroke-linejoin:miter;stroke-opacity:1"
       d="m 452.44322,37.708745 -6.76863,-10.06257 15.23618,0"
       id="path6702"
       inkscape:connector-curvature="0" />
    <path
       style="fill:none;stroke:#000000;stroke-width:1px;stroke-linecap:butt;stroke-linejoin:miter;stroke-opacity:1"
       d="m 445.67459,27.646175 -0.0943,-28.21429994 28.68457,0"
       id="path6704"
       inkscape:connector-curvature="0" />
    <path
       style="fill:none;stroke:#000000;stroke-width:1px;stroke-linecap:butt;stroke-linejoin:miter;stroke-opacity:1"
       d="M 463.99775,-0.56812494 421.81333,-130.991"
       id="path6706"
       inkscape:connector-curvature="0"
       sodipodi:nodetypes="cc" />
    <path
       style="fill:none;stroke:#000000;stroke-width:1px;stroke-linecap:butt;stroke-linejoin:miter;stroke-opacity:1"
       d="M 446.69696,-0.56812494 404.51263,-130.99875"
       id="path6708"
       inkscape:connector-curvature="0"
       sodipodi:nodetypes="cc" />
    <path
       style="fill:none;stroke:#000000;stroke-width:1px;stroke-linecap:butt;stroke-linejoin:miter;stroke-opacity:1"
       d="m 445.67459,-0.56812494 -20.52563,0 -3.1033,-9.71403006 19.46958,-6.30744"
       id="path6710"
       inkscape:connector-curvature="0"
       sodipodi:nodetypes="cccc" />
    <path
       style="fill:none;stroke:#000000;stroke-width:1px;stroke-linecap:butt;stroke-linejoin:miter;stroke-opacity:1"
       d="m 422.04661,-10.282465 -3.45642,1.1172901 -11.0005,-34.0308801 22.8106,-7.760087"
       id="path6712"
       inkscape:connector-curvature="0"
       sodipodi:nodetypes="cccc" />
    <path
       style="fill:none;stroke:#000000;stroke-width:1px;stroke-linecap:butt;stroke-linejoin:miter;stroke-opacity:1"
       d="M 400.13922,-78.647467 382.6967,-131.00852"
       id="path6716"
       inkscape:connector-curvature="0"
       sodipodi:nodetypes="cc" />
    <path
       style="fill:none;stroke:#000000;stroke-width:1px;stroke-linecap:butt;stroke-linejoin:miter;stroke-opacity:1"
       d="m 527.79937,103.85666 7.04002,-0.97894 11.86117,-3.411395 -12.09697,-3.45632 -12.01825,-1.100104"
       id="path6718"
       inkscape:connector-curvature="0"
       sodipodi:nodetypes="ccccc" />
    <path
       style="fill:none;stroke:#000000;stroke-width:1px;stroke-linecap:butt;stroke-linejoin:miter;stroke-opacity:1"
       d="m 496.8997,50.835881 8.89374,-1.792176 6.74611,-2.22308 -10.96947,-3.23378 -9.57186,-1.161416"
       id="path6720"
       inkscape:connector-curvature="0"
       sodipodi:nodetypes="ccccc" />
    <path
       style="fill:none;stroke:#000000;stroke-width:1px;stroke-linecap:butt;stroke-linejoin:miter;stroke-opacity:1"
       d="m 463.09209,-35.131895 8.45959,-1.44051 9.09354,-2.81973 -10.90704,-3.22086 -9.40928,-1.154412"
       id="path6722"
       inkscape:connector-curvature="0"
       sodipodi:nodetypes="ccccc" />
    <path
       style="fill:none;stroke:#000000;stroke-width:1px;stroke-linecap:butt;stroke-linejoin:miter;stroke-opacity:1"
       d="m 448.71919,-79.726985 9.16853,-1.63857 9.74125,-2.96889 -11.68634,-3.37755 -10.2116,-1.270418"
       id="path6724"
       inkscape:connector-curvature="0"
       sodipodi:nodetypes="ccccc" />
    <path
       style="fill:none;stroke:#000000;stroke-width:1px;stroke-linecap:butt;stroke-linejoin:miter;stroke-opacity:1"
       d="M 825.02451,-148.22859 957.62013,-0.32276901 999.64425,-0.22865494 952.74195,-172.97037"
       id="path6726"
       inkscape:connector-curvature="0"
       sodipodi:nodetypes="cccc" />
    <path
       style="fill:none;stroke:#000000;stroke-width:1px;stroke-linecap:butt;stroke-linejoin:miter;stroke-opacity:1"
       d="m 913.55186,-166.41587 64.75079,142.313735 14.8596,0"
       id="path6728"
       inkscape:connector-curvature="0"
       sodipodi:nodetypes="ccc" />
    <path
       style="fill:none;stroke:#000000;stroke-width:1px;stroke-linecap:butt;stroke-linejoin:miter;stroke-opacity:1"
       d="m 723.22504,-184.75587 1.72926,2.8419 6.78595,2.79637 13.82104,2.57704 29.98259,2.39337 29.3526,0.77388 66.08377,-0.89837 52.8048,-2.50881 52.93119,-5.27404"
       id="path6730"
       inkscape:connector-curvature="0"
       sodipodi:nodetypes="ccccccccc" />
    <path
       style="fill:none;stroke:#000000;stroke-width:1px;stroke-linecap:butt;stroke-linejoin:miter;stroke-opacity:1"
       d="m 947.0095,-184.75587 1.42515,1.0194 5.3369,0.89371 14.2678,0.89199 8.6805,-0.1038 7.4195,-0.29814 11.7081,-0.84144 15.46105,-1.56172"
       id="path6732"
       inkscape:connector-curvature="0"
       sodipodi:nodetypes="cccccccc" />
    <path
       style="fill:none;stroke:#000000;stroke-width:1px;stroke-linecap:butt;stroke-linejoin:miter;stroke-opacity:1"
       d="m 571.47715,100.61411 -22.97715,7.22678 11.08969,34.3068"
       id="path4664"
       inkscape:connector-curvature="0"
       transform="translate(-152,-185.34375)"
       sodipodi:nodetypes="ccc" />
    <path
       style="fill:none;stroke:#000000;stroke-width:1px;stroke-linecap:butt;stroke-linejoin:miter;stroke-opacity:1"
       d="m 781.10849,463.03687 -14.14387,0 -79.0166,-122.20902 21.94724,0.0141"
       id="path4666"
       inkscape:connector-curvature="0"
       transform="translate(-152,-185.34375)" />
  </g>
</svg>
